#!OML:ASF X:\für Bonn\!DataBase\2005_08_11_Bastian_Final\c3d\Bastian.ASF
:FULLY-SPECIFIED
:DEGREES
32
root -18.9714 17.4841 -1.08865 82.0285 -81.5984 -91.9826
lowerback 8.10587 1.07807 6.97168
upperback 3.28471 1.86508 1.51971
thorax -0.950109 0.923172 -2.49659
lowerneck -6.20687 -5.74154 -6.33277
upperneck -8.18247 -7.18868 8.91419
head -0.944561 -3.61658 3.91622
rclavicle -9.05713e-015 -7.15625e-015
rhumerus -0.56696 18.4039 -66.3346
rradius 78.3965
rwrist -0.395368
rhand -14.5627 2.75289
rfingers 7.12502
rthumb 11.5865 -26.9068
lclavicle -9.05713e-015 -7.15625e-015
lhumerus -33.6294 1.00756 85.2361
lradius 12.7614
lwrist 9.60761
lhand -9.42195 -6.74586
lfingers 7.12502
lthumb 16.5402 22.5692
rfemur 8.81797 2.72058 30.4181
rtibia 25.2256
rfoot -14.7221 -4.2315
rtoes -5.70158
lfemur -10.7478 -1.84058 -8.97884
ltibia 25.1869
lfoot 0.359156 -5.92273
ltoes -23.5119
33
root -19.0478 17.4881 -1.05713 83.0893 -81.5884 -92.9937
lowerback 7.9688 1.13731 7.05183
upperback 3.25794 1.94066 1.45453
thorax -0.889588 0.964491 -2.61143
lowerneck -6.17863 -5.81205 -6.27047
upperneck -8.13061 -7.28798 8.93376
head -0.925844 -3.66769 3.9073
rclavicle -9.90817e-015 -2.5842e-014
rhumerus 1.19372 18.1496 -65.4169
rradius 78.4554
rwrist -0.116271
rhand -14.7517 2.67396
rfingers 7.12502
rthumb 11.4042 -26.9959
lclavicle -9.90817e-015 -2.5842e-014
lhumerus -33.0867 0.749597 85.1631
lradius 12.658
lwrist 9.32157
lhand -9.332 -6.88388
lfingers 7.12502
lthumb 16.6268 22.4239
rfemur 9.07895 2.79855 30.33
rtibia 25.1204
rfoot -14.7027 -4.15994
rtoes -6.28478
lfemur -10.6141 -1.65459 -9.06699
ltibia 25.439
lfoot 0.186338 -5.92094
ltoes -23.7007
34
root -19.124 17.4932 -1.02601 84.2115 -81.5548 -94.0581
lowerback 7.78365 1.19769 7.14691
upperback 3.25504 2.01249 1.4028
thorax -0.777367 1.00593 -2.71814
lowerneck -6.16345 -5.88029 -6.262
upperneck -8.1073 -7.37955 8.98861
head -0.911362 -3.71431 3.92149
rclavicle 2.74385e-014 1.15295e-014
rhumerus 3.06321 18.011 -64.3864
rradius 78.2589
rwrist 0.10113
rhand -15.1363 2.62155
rfingers 7.12502
rthumb 11.0333 -27.0685
lclavicle 2.74385e-014 1.15295e-014
lhumerus -32.4542 0.883378 84.9161
lradius 12.4712
lwrist 8.65839
lhand -9.23637 -7.05345
lfingers 7.12502
lthumb 16.7189 22.2466
rfemur 9.32748 2.91432 30.2761
rtibia 25.0155
rfoot -14.6393 -4.0985
rtoes -6.87678
lfemur -10.4876 -1.5335 -9.1284
ltibia 25.6775
lfoot 0.0180972 -5.83037
ltoes -23.5326
35
root -19.1986 17.4983 -0.994248 85.195 -81.5615 -94.9892
lowerback 7.62895 1.25248 7.20581
upperback 3.22511 2.07922 1.33608
thorax -0.711251 1.04305 -2.82089
lowerneck -6.08276 -5.94641 -6.26762
upperneck -8.06877 -7.46941 9.06215
head -0.901986 -3.76044 3.94693
rclavicle -2.21769e-014 3.57812e-015
rhumerus 4.93576 18.0112 -63.2464
rradius 77.84
rwrist 0.252458
rhand -15.6595 2.61566
rfingers 7.12502
rthumb 10.5286 -27.1006
lclavicle -2.21769e-014 3.57812e-015
lhumerus -31.8615 0.989203 84.6563
lradius 12.2978
lwrist 8.02566
lhand -9.15261 -7.21417
lfingers 7.12502
lthumb 16.7995 22.0791
rfemur 9.56655 3.01468 30.1693
rtibia 24.9267
rfoot -14.5648 -4.04895
rtoes -7.59175
lfemur -10.3508 -1.39245 -9.24207
ltibia 25.8878
lfoot -0.19385 -5.755
ltoes -23.5318
36
root -19.2722 17.5043 -0.963006 86.0861 -81.5679 -95.8142
lowerback 7.42488 1.31539 7.26561
upperback 3.2221 2.15027 1.26414
thorax -0.58869 1.08481 -2.92741
lowerneck -6.01998 -6.02041 -6.23962
upperneck -8.0793 -7.57051 9.12081
head -0.906545 -3.81374 3.96117
rclavicle -1.47442e-014 -1.51076e-014
rhumerus 6.81904 17.9138 -62.104
rradius 77.3641
rwrist 0.451159
rhand -16.1334 2.613
rfingers 7.12502
rthumb 10.0714 -27.126
lclavicle -1.47442e-014 -1.51076e-014
lhumerus -31.1932 1.09239 84.4105
lradius 12.1258
lwrist 7.4092
lhand -9.14208 -7.34541
lfingers 7.12502
lthumb 16.8097 21.947
rfemur 9.77071 3.11697 30.0642
rtibia 24.8596
rfoot -14.4543 -4.00973
rtoes -8.2295
lfemur -10.2194 -1.21339 -9.35127
ltibia 26.0599
lfoot -0.35985 -5.74298
ltoes -23.3065
37
root -19.345 17.5096 -0.931946 87.0843 -81.5896 -96.7533
lowerback 7.24586 1.3792 7.31738
upperback 3.19916 2.22573 1.18085
thorax -0.499809 1.12752 -3.04225
lowerneck -5.92083 -6.09442 -6.22405
upperneck -8.07072 -7.67229 9.18639
head -0.910267 -3.86723 3.98104
rclavicle 1.91827e-014 2.18663e-014
rhumerus 8.63662 17.8272 -60.9535
rradius 76.8559
rwrist 0.696376
rhand -16.6062 2.6471
rfingers 7.12502
rthumb 9.61532 -27.1135
lclavicle 1.91827e-014 2.18663e-014
lhumerus -30.589 0.979466 84.2344
lradius 12.0299
lwrist 7.02585
lhand -9.16103 -7.38412
lfingers 7.12502
lthumb 16.7914 21.9098
rfemur 9.96058 3.21514 29.9285
rtibia 24.831
rfoot -14.368 -3.9176
rtoes -8.89187
lfemur -10.0507 -1.07443 -9.48119
ltibia 26.1871
lfoot -0.522664 -5.65702
ltoes -22.8145
38
root -19.4161 17.5156 -0.900723 87.8658 -81.6153 -97.4665
lowerback 7.04628 1.43545 7.35911
upperback 3.18816 2.28772 1.10338
thorax -0.388842 1.16435 -3.14323
lowerneck -5.83652 -6.16195 -6.22259
upperneck -8.07858 -7.7637 9.25925
head -0.916722 -3.91542 4.00646
rclavicle 1.86299e-014 5.96354e-015
rhumerus 10.4906 17.6837 -59.7863
rradius 76.2764
rwrist 1.07346
rhand -16.9546 2.74505
rfingers 7.12502
rthumb 9.27913 -27.0308
lclavicle 1.86299e-014 5.96354e-015
lhumerus -29.9594 0.853469 84.0861
lradius 11.9471
lwrist 6.64026
lhand -9.26639 -7.38568
lfingers 7.12502
lthumb 16.69 21.9168
rfemur 10.1132 3.30878 29.797
rtibia 24.8419
rfoot -14.2584 -3.87965
rtoes -9.69356
lfemur -9.89084 -0.91995 -9.61834
ltibia 26.2773
lfoot -0.640738 -5.61442
ltoes -22.4027
39
root -19.4868 17.5224 -0.870401 88.6782 -81.6588 -98.2059
lowerback 6.85039 1.49586 7.37038
upperback 3.16237 2.35502 1.02151
thorax -0.295686 1.20291 -3.23218
lowerneck -5.73563 -6.23653 -6.2293
upperneck -8.08214 -7.86463 9.33633
head -0.923272 -3.96835 4.03515
rclavicle 2.71248e-014 -2.22639e-014
rhumerus 12.3112 17.5138 -58.5933
rradius 75.6925
rwrist 1.45541
rhand -17.2405 2.88733
rfingers 7.12502
rthumb 9.00332 -26.9005
lclavicle 2.71248e-014 -2.22639e-014
lhumerus -29.3745 0.562631 84.005
lradius 11.9199
lwrist 6.42744
lhand -9.44765 -7.30476
lfingers 7.12502
lthumb 16.5155 22.0124
rfemur 10.2347 3.43277 29.6525
rtibia 24.8987
rfoot -14.1587 -3.8502
rtoes -10.399
lfemur -9.72019 -0.7447 -9.76888
ltibia 26.3377
lfoot -0.757927 -5.60332
ltoes -21.7246
40
root -19.5565 17.5288 -0.840499 89.3626 -81.7094 -98.8342
lowerback 6.65035 1.55511 7.36878
upperback 3.15268 2.41846 0.94285
thorax -0.184365 1.24023 -3.30948
lowerneck -5.64014 -6.3152 -6.25407
upperneck -8.08773 -7.96955 9.43079
head -0.927583 -4.02304 4.07312
rclavicle -2.19315e-014 -2.3059e-014
rhumerus 14.0947 17.2922 -57.3769
rradius 75.0824
rwrist 1.90591
rhand -17.5401 3.14227
rfingers 7.12502
rthumb 8.71416 -26.6579
lclavicle -2.19315e-014 -2.3059e-014
lhumerus -28.7425 0.450437 83.8384
lradius 11.868
lwrist 6.05134
lhand -9.58491 -7.20166
lfingers 7.12502
lthumb 16.3833 22.1264
rfemur 10.3491 3.50885 29.4879
rtibia 25.0009
rfoot -14.0767 -3.77285
rtoes -11.0717
lfemur -9.5234 -0.590609 -9.93294
ltibia 26.3755
lfoot -0.908992 -5.59337
ltoes -21.3314
41
root -19.6247 17.5349 -0.810724 89.8417 -81.7588 -99.2512
lowerback 6.45069 1.60488 7.3867
upperback 3.14436 2.47047 0.848903
thorax -0.0711807 1.27235 -3.41246
lowerneck -5.54078 -6.39357 -6.24361
upperneck -8.12118 -8.07573 9.50975
head -0.943673 -4.07986 4.10005
rclavicle -2.45685e-014 5.56597e-015
rhumerus 15.8659 16.9903 -56.1837
rradius 74.4366
rwrist 2.38095
rhand -17.7375 3.49078
rfingers 7.12502
rthumb 8.5237 -26.3172
lclavicle -2.45685e-014 5.56597e-015
lhumerus -28.0942 0.158406 83.7212
lradius 11.8349
lwrist 5.85144
lhand -9.79097 -7.08381
lfingers 7.12502
lthumb 16.1849 22.2605
rfemur 10.4334 3.58629 29.3305
rtibia 25.1438
rfoot -13.9978 -3.72829
rtoes -11.7658
lfemur -9.34262 -0.441406 -10.0908
ltibia 26.3982
lfoot -1.04084 -5.60882
ltoes -20.7595
42
root -19.6919 17.5407 -0.781429 90.3831 -81.8273 -99.7316
lowerback 6.25137 1.66384 7.36811
upperback 3.13187 2.53325 0.7642
thorax 0.0366705 1.30914 -3.48583
lowerneck -5.45398 -6.47402 -6.25442
upperneck -8.12568 -8.18412 9.57909
head -0.947376 -4.13619 4.1262
rclavicle 3.05926e-014 2.70347e-014
rhumerus 17.5733 16.6228 -55.0254
rradius 73.753
rwrist 2.90298
rhand -17.8739 3.94265
rfingers 7.12502
rthumb 8.39202 -25.8706
lclavicle 3.05926e-014 2.70347e-014
lhumerus -27.4563 -0.162362 83.6286
lradius 11.8208
lwrist 5.7144
lhand -9.95111 -6.94247
lfingers 7.12502
lthumb 16.0307 22.4143
rfemur 10.4963 3.65365 29.1491
rtibia 25.3154
rfoot -13.8665 -3.66049
rtoes -12.5121
lfemur -9.15092 -0.288353 -10.269
ltibia 26.4127
lfoot -1.20077 -5.62347
ltoes -20.1939
43
root -19.7586 17.5465 -0.753057 90.8078 -81.8753 -100.095
lowerback 6.04412 1.71823 7.37853
upperback 3.12377 2.59061 0.672945
thorax 0.154938 1.34406 -3.58108
lowerneck -5.35072 -6.55947 -6.2623
upperneck -8.1635 -8.29852 9.67404
head -0.963186 -4.19708 4.16238
rclavicle -1.86003e-014 -1.51076e-014
rhumerus 19.273 16.2487 -53.8704
rradius 73.0029
rwrist 3.36724
rhand -18.1131 4.43436
rfingers 7.12502
rthumb 8.16123 -25.388
lclavicle -1.86003e-014 -1.51076e-014
lhumerus -26.8139 -0.595059 83.5582
lradius 11.8638
lwrist 5.75008
lhand -10.1212 -6.77904
lfingers 7.12502
lthumb 15.8669 22.5909
rfemur 10.5534 3.73592 29.0021
rtibia 25.4996
rfoot -13.687 -3.62568
rtoes -13.479
lfemur -8.96959 -0.10903 -10.4135
ltibia 26.4306
lfoot -1.35467 -5.71282
ltoes -19.5465
44
root -19.8238 17.5521 -0.725328 91.1987 -81.9488 -100.406
lowerback 5.83195 1.76823 7.35565
upperback 3.10521 2.64113 0.579741
thorax 0.262827 1.37475 -3.6592
lowerneck -5.27172 -6.63668 -6.3068
upperneck -8.16216 -8.39996 9.79244
head -0.960164 -4.2497 4.21199
rclavicle -2.34721e-014 1.27222e-014
rhumerus 20.9361 15.8638 -52.7345
rradius 72.2052
rwrist 3.8266
rhand -18.3291 4.93286
rfingers 7.12502
rthumb 7.95267 -24.8975
lclavicle -2.34721e-014 1.27222e-014
lhumerus -26.2008 -1.11702 83.5162
lradius 11.9583
lwrist 5.94598
lhand -10.2585 -6.64852
lfingers 7.12502
lthumb 15.7347 22.7318
rfemur 10.5857 3.82018 28.83
rtibia 25.6875
rfoot -13.5549 -3.59865
rtoes -14.2033
lfemur -8.81345 0.0582109 -10.5892
ltibia 26.446
lfoot -1.534 -5.79393
ltoes -19.1228
